<svg width="23" height="15" viewBox="0 0 23 15" fill="none" xmlns="http://www.w3.org/2000/svg">
<g clip-path="url(#clip0_151_51)">
<mask id="mask0_151_51" style="mask-type:luminance" maskUnits="userSpaceOnUse" x="0" y="0" width="23" height="15">
<path d="M22.9076 0H0.205078V15H22.9076V0Z" fill="white"/>
</mask>
<g mask="url(#mask0_151_51)">
<path d="M22.4596 7.70508C22.4596 7.59766 22.4129 7.50977 22.3196 7.43164L14.4315 0.791016C14.2566 0.625 14.1281 0.585938 13.9998 0.585938C13.7431 0.585938 13.5448 0.751953 13.5448 0.957031C13.5448 1.06445 13.5798 1.16211 13.6731 1.23047L18.3289 5.13672L21.1178 7.39258L18.5623 7.33398H1.2343C0.989261 7.33398 0.790894 7.49023 0.790894 7.70508C0.790894 7.91992 0.989261 8.07617 1.2343 8.07617H18.5623L21.1178 8.02734L18.3289 10.2734L13.6731 14.1797C13.5914 14.248 13.5448 14.3555 13.5448 14.4629C13.5448 14.6582 13.7431 14.8242 13.9998 14.8242C14.1281 14.8242 14.2332 14.7852 14.3266 14.707L22.3196 7.97852C22.4129 7.90039 22.4596 7.8125 22.4596 7.70508Z" fill="white" stroke="white"/>
</g>
</g>
<defs>
<clipPath id="clip0_151_51">
<rect width="22.7026" height="15" fill="white" transform="translate(0.205078)"/>
</clipPath>
</defs>
</svg>
